<svg xmlns="http://www.w3.org/2000/svg" viewBox="0 0 256 256" role="img" aria-label="Bookcase app icon">
  <defs>
    <linearGradient id="case" x1="48" y1="28" x2="208" y2="228" gradientUnits="userSpaceOnUse">
      <stop offset="0" stop-color="#4b6f8f"/>
      <stop offset="1" stop-color="#263f58"/>
    </linearGradient>
    <linearGradient id="shelf" x1="52" y1="56" x2="204" y2="210" gradientUnits="userSpaceOnUse">
      <stop offset="0" stop-color="#f7f0df"/>
      <stop offset="1" stop-color="#e0cfaf"/>
    </linearGradient>
  </defs>
  <rect width="256" height="256" rx="48" fill="#f4efe3"/>
  <rect x="37" y="30" width="182" height="199" rx="24" fill="url(#case)"/>
  <rect x="52" y="48" width="152" height="178" rx="15" fill="#24384e"/>
  <rect x="64" y="62" width="128" height="160" rx="8" fill="url(#shelf)"/>
  <rect x="64" y="109" width="128" height="10" rx="5" fill="#b58b5b"/>
  <rect x="64" y="166" width="128" height="10" rx="5" fill="#b58b5b"/>
  <rect x="77" y="75" width="17" height="34" rx="4" fill="#d35f4c"/>
  <rect x="99" y="70" width="15" height="39" rx="4" fill="#f2b84b"/>
  <rect x="119" y="80" width="14" height="29" rx="4" fill="#4e9b79"/>
  <rect x="139" y="72" width="17" height="37" rx="4" fill="#587fa7"/>
  <rect x="162" y="78" width="14" height="31" rx="4" fill="#8b6fa8"/>
  <rect x="78" y="130" width="15" height="36" rx="4" fill="#587fa7"/>
  <rect x="98" y="124" width="18" height="42" rx="4" fill="#4e9b79"/>
  <rect x="122" y="136" width="16" height="30" rx="4" fill="#d35f4c"/>
  <rect x="144" y="126" width="14" height="40" rx="4" fill="#f2b84b"/>
  <rect x="164" y="133" width="16" height="33" rx="4" fill="#8b6fa8"/>
  <rect x="79" y="185" width="19" height="28" rx="4" fill="#f2b84b"/>
  <rect x="104" y="180" width="14" height="33" rx="4" fill="#d35f4c"/>
  <rect x="124" y="188" width="17" height="25" rx="4" fill="#4e9b79"/>
  <rect x="147" y="181" width="16" height="32" rx="4" fill="#587fa7"/>
  <rect x="169" y="186" width="13" height="27" rx="4" fill="#8b6fa8"/>
  <path d="M54 208h148v4c0 11-9 20-20 20H74c-11 0-20-9-20-20v-4z" fill="#1c3045" opacity=".45"/>
</svg>
